<?xml version="1.0" standalone="no"?>
<!DOCTYPE svg PUBLIC "-//W3C//DTD SVG 20010904//EN"
 "http://www.w3.org/TR/2001/REC-SVG-20010904/DTD/svg10.dtd">
<svg version="1.0" xmlns="http://www.w3.org/2000/svg"
 width="1280.000000pt" height="738.000000pt" viewBox="0 0 1280.000000 738.000000"
 preserveAspectRatio="xMidYMid meet">
<g transform="translate(0.000000,738.000000) scale(0.100000,-0.100000)"
fill="#000000" stroke="none">
<path d="M11463 7356 c-189 -61 -304 -191 -336 -382 l-13 -79 -1580 -1227
c-1076 -837 -1583 -1236 -1591 -1255 -13 -30 -17 -458 -4 -502 3 -13 18 -33
32 -43 25 -19 30 -19 355 8 181 15 338 30 349 34 11 5 523 464 1139 1021 615
558 1122 1016 1127 1017 5 2 9 -3 9 -11 0 -8 -216 -449 -479 -980 -264 -531
-481 -974 -482 -984 -5 -32 11 -72 33 -84 26 -14 762 -65 800 -56 16 4 34 19
41 35 8 15 198 599 422 1297 224 699 411 1278 416 1287 5 9 34 28 66 42 44 21
58 24 65 14 4 -7 8 -17 8 -21 0 -5 67 -464 149 -1020 82 -557 153 -1055 156
-1109 8 -113 13 -108 -109 -128 l-79 -13 -22 -51 c-44 -101 -47 -96 38 -96 85
0 87 -2 87 -81 0 -154 60 -372 128 -471 39 -55 116 -110 182 -128 56 -16 141
-11 186 9 91 41 167 158 168 260 1 47 -6 71 -36 132 -40 79 -82 138 -92 128
-4 -3 -1 -40 5 -82 15 -99 5 -178 -27 -216 -31 -38 -82 -61 -133 -61 -70 0
-136 78 -182 212 -20 61 -38 228 -23 228 4 0 73 -39 151 -87 79 -47 146 -83
149 -80 7 6 -12 29 -163 195 -51 56 -93 104 -93 106 0 2 27 37 60 76 34 40 59
75 56 77 -3 3 -50 -3 -106 -12 -69 -12 -105 -14 -112 -7 -11 11 -20 119 -38
437 -31 560 -41 915 -46 1590 l-6 740 -25 43 c-13 23 -47 60 -75 83 -28 22
-59 50 -69 64 -55 69 -249 156 -345 154 -21 0 -71 -11 -111 -23z"/>
<path d="M7249 7114 l-24 -26 0 -1578 0 -1578 24 -26 24 -26 272 0 c271 0 272
0 293 23 l22 23 0 1585 0 1586 -23 21 c-23 21 -30 22 -293 22 l-271 0 -24 -26z"/>
<path d="M4142 6908 c-26 -7 -141 -169 -897 -1264 -477 -690 -877 -1272 -888
-1293 -18 -33 -19 -42 -8 -69 7 -16 25 -35 39 -41 24 -10 349 -40 2042 -191
245 -22 492 -45 550 -50 58 -6 458 -42 890 -80 432 -38 829 -74 883 -80 158
-16 200 -14 225 13 22 23 23 32 28 313 14 792 23 2424 14 2448 -5 15 -20 31
-33 37 -36 16 -2808 266 -2845 257z m908 -594 c1186 -67 1422 -82 1430 -90 6
-6 6 -145 0 -349 -5 -187 -14 -542 -20 -790 -13 -575 -18 -675 -35 -682 -12
-4 -428 32 -2350 203 -154 13 -378 33 -497 44 -119 11 -232 20 -250 20 -19 0
-42 6 -51 13 -16 11 40 94 564 832 320 451 586 824 593 828 6 4 45 5 86 2 41
-3 280 -17 530 -31z"/>
<path d="M1975 3939 c-580 -23 -983 -86 -1194 -186 -168 -80 -272 -250 -317
-514 -22 -134 -15 -429 15 -604 52 -308 132 -596 262 -953 54 -147 158 -401
195 -474 40 -79 45 -80 297 -86 316 -7 433 11 556 86 88 53 169 136 269 277
125 177 180 242 247 292 125 95 250 133 435 133 124 0 225 -17 325 -55 158
-59 265 -137 491 -356 235 -228 311 -280 460 -318 441 -111 861 -125 1794 -59
217 15 745 15 885 -1 241 -26 253 -26 280 -1 l25 23 0 1239 c0 826 -3 1246
-10 1258 -6 11 -19 24 -29 29 -18 10 -201 30 -701 75 -1746 160 -3345 233
-4285 195z"/>
<path d="M9145 3753 c-33 -1 -186 -7 -340 -13 -154 -6 -478 -22 -720 -35 -242
-14 -530 -30 -640 -36 -231 -13 -252 -16 -277 -50 -17 -23 -19 -75 -28 -974
-5 -523 -11 -1066 -14 -1208 -5 -267 0 -309 34 -327 12 -6 396 -10 1049 -10
l1029 0 66 44 c36 24 163 139 283 255 316 305 425 386 621 460 l97 36 165 0
c155 -1 170 -2 245 -29 162 -56 250 -129 475 -391 185 -215 303 -325 403 -377
89 -45 387 -30 443 23 l24 22 0 1197 c0 1387 18 1222 -133 1251 -394 77 -919
135 -1442 159 -191 9 -1172 11 -1340 3z"/>
<path d="M12177 2493 c-4 -3 -7 -309 -7 -680 l0 -673 38 5 c229 29 288 43 366
89 54 31 126 128 162 215 28 69 64 217 64 262 0 43 -37 173 -65 229 -52 103
-211 279 -375 416 -146 121 -177 144 -183 137z"/>
<path d="M258 2213 c-132 -233 -194 -377 -238 -555 -26 -105 -26 -116 10 -230
53 -168 177 -321 316 -389 53 -26 73 -31 142 -31 45 0 107 6 139 12 51 10 194
49 200 54 5 5 -487 1251 -494 1253 -5 2 -39 -50 -75 -114z"/>
<path d="M10310 1763 c-396 -66 -691 -393 -716 -792 -21 -332 162 -652 457
-800 142 -70 233 -93 384 -93 81 0 145 5 195 17 258 61 465 226 576 460 68
144 79 196 78 375 0 146 -2 160 -32 250 -45 136 -109 239 -211 341 -129 129
-278 207 -455 238 -57 11 -224 13 -276 4z"/>
<path d="M2713 1700 c-144 -21 -308 -95 -420 -189 -125 -104 -205 -223 -262
-384 -35 -101 -36 -103 -35 -267 0 -153 2 -171 28 -250 103 -314 341 -522 675
-589 128 -26 154 -26 272 -1 114 24 178 45 244 78 382 191 564 636 426 1039
-78 225 -272 428 -492 513 -135 52 -296 70 -436 50z"/>
</g>
</svg>
