<svg xmlns="http://www.w3.org/2000/svg" width="47.833" height="47.841" viewBox="0 0 47.833 47.841"><path d="M45.442,4.783h-.8V2.392A2.392,2.392,0,0,0,42.253,0H27.106a3.972,3.972,0,0,0-3.189,1.619A3.972,3.972,0,0,0,20.728,0H5.581A2.392,2.392,0,0,0,3.189,2.392V4.783h-.8A2.392,2.392,0,0,0,0,7.175V40.658A2.392,2.392,0,0,0,2.392,43.05H17.156a1.56,1.56,0,0,1,1.488,1.036,5.581,5.581,0,0,0,10.546,0,1.56,1.56,0,0,1,1.487-1.036H45.442a2.392,2.392,0,0,0,2.392-2.392V7.175A2.392,2.392,0,0,0,45.442,4.783ZM27.106,1.594H42.253a.8.8,0,0,1,.8.8V35.078H27.106a3.945,3.945,0,0,0-2.392.818V3.986A2.392,2.392,0,0,1,27.106,1.594ZM43.05,36.672v1.594H24.85a2.4,2.4,0,0,1,2.255-1.594ZM5.581,1.594H20.728A2.392,2.392,0,0,1,23.12,3.986V35.9a3.945,3.945,0,0,0-2.392-.818H4.783V2.392A.8.8,0,0,1,5.581,1.594Zm-.8,35.078H20.728a2.4,2.4,0,0,1,2.255,1.594H4.783Zm41.456,3.986a.8.8,0,0,1-.8.8H30.677a3.155,3.155,0,0,0-2.993,2.1,3.986,3.986,0,0,1-7.535,0,3.155,3.155,0,0,0-2.994-2.1H2.392a.8.8,0,0,1-.8-.8V7.175a.8.8,0,0,1,.8-.8h.8V38.267a1.594,1.594,0,0,0,1.594,1.594H43.05a1.594,1.594,0,0,0,1.594-1.594V6.378h.8a.8.8,0,0,1,.8.8Z"/><path d="M9.594,16.217v1.741a1.594,1.594,0,0,0,1.594,1.594h1.594a1.594,1.594,0,0,0,1.594-1.594V16.364h1.594v1.594a1.594,1.594,0,0,0,1.594,1.594h1.594a1.594,1.594,0,0,0,1.594-1.594V16.217a2.392,2.392,0,0,0,1.594-2.245V12.378a2.392,2.392,0,0,0-1.822-2.312l-.366-.915a.785.785,0,0,0,.593-.759.8.8,0,0,0-.8-.8h-.417L19.5,7.5A2.381,2.381,0,0,0,17.284,6H13.066a2.382,2.382,0,0,0-2.221,1.5l-.036.091h-.417a.8.8,0,0,0-.8.8.785.785,0,0,0,.592.756l-.365.918A2.392,2.392,0,0,0,8,12.378v1.594A2.392,2.392,0,0,0,9.594,16.217Zm3.189,1.741H11.189V16.364h1.594Zm4.783,0V16.364h1.594v1.594Zm-4.5-10.364h4.219a.8.8,0,0,1,.74.5l.757,1.891H11.569l.756-1.89a.8.8,0,0,1,.741-.5ZM9.594,12.378a.8.8,0,0,1,.8-.8h9.567a.8.8,0,0,1,.8.8v1.594a.8.8,0,0,1-.8.8H10.392a.8.8,0,0,1-.8-.8Z" transform="translate(-1.622 -1.217)"/><path d="M39.594,21.567h4.783a1.594,1.594,0,0,0,1.594-1.594V18.378a1.594,1.594,0,0,0-1.594-1.594V13.594A1.594,1.594,0,0,0,42.783,12H41.189a1.594,1.594,0,0,0-1.594,1.594v3.189A1.594,1.594,0,0,0,38,18.378v1.594A1.594,1.594,0,0,0,39.594,21.567Zm0-3.189h.8a.8.8,0,0,0,.8-.8V13.594h1.594v3.986a.8.8,0,0,0,.8.8h.8v1.594H39.594Z" transform="translate(-7.705 -2.433)"/><path d="M41.594,8.783h1.594a1.594,1.594,0,0,0,1.594-1.594V5.594A1.594,1.594,0,0,0,43.189,4H41.594A1.594,1.594,0,0,0,40,5.594V7.189A1.594,1.594,0,0,0,41.594,8.783Zm0-3.189h1.594V7.189H41.594Z" transform="translate(-8.111 -0.811)"/><path d="M8.8,27.594H21.553a.8.8,0,1,0,0-1.594H8.8a.8.8,0,1,0,0,1.594Z" transform="translate(-1.622 -5.272)"/><path d="M8.8,31.594H21.553a.8.8,0,1,0,0-1.594H8.8a.8.8,0,1,0,0,1.594Z" transform="translate(-1.622 -6.083)"/><path d="M8.8,35.594H21.553a.8.8,0,1,0,0-1.594H8.8a.8.8,0,1,0,0,1.594Z" transform="translate(-1.622 -6.894)"/><path d="M8.8,39.594h9.567a.8.8,0,1,0,0-1.594H8.8a.8.8,0,1,0,0,1.594Z" transform="translate(-1.622 -7.705)"/><path d="M34.8,27.594H47.553a.8.8,0,0,0,0-1.594H34.8a.8.8,0,1,0,0,1.594Z" transform="translate(-6.894 -5.272)"/><path d="M34.8,31.594H47.553a.8.8,0,0,0,0-1.594H34.8a.8.8,0,1,0,0,1.594Z" transform="translate(-6.894 -6.083)"/><path d="M34.8,35.594H47.553a.8.8,0,0,0,0-1.594H34.8a.8.8,0,1,0,0,1.594Z" transform="translate(-6.894 -6.894)"/><path d="M34.8,39.594h9.567a.8.8,0,1,0,0-1.594H34.8a.8.8,0,1,0,0,1.594Z" transform="translate(-6.894 -7.705)"/><ellipse cx="0.5" cy="1" rx="0.5" ry="1" transform="translate(9 11)"/><ellipse cx="0.5" cy="1" rx="0.5" ry="1" transform="translate(17 11)"/></svg>